ply
format ascii 1.0
element vertex 20
property float x
property float y
property float z
property uchar red
property uchar green
property uchar blue
end_header
171 63 255 183 165 155 
175 57 255 155 141 131 
175 59 253 157 141 130 
174 59 254 160 143 132 
174 59 255 160 145 134 
175 58 254 158 142 132 
175 58 255 158 143 133 
175 59 254 157 141 131 
175 59 255 161 146 136 
172 61 255 161 145 134 
173 60 255 160 144 134 
173 61 254 161 145 133 
173 61 255 160 144 134 
172 62 255 166 150 139 
172 63 255 175 159 149 
173 62 254 167 151 142 
173 63 255 172 156 148 
174 61 253 166 150 140 
175 60 252 167 150 139 
175 60 253 161 145 133 
